<?xml version="1.0" encoding="utf-8"?>
<!-- Generator: Adobe Illustrator 17.1.0, SVG Export Plug-In . SVG Version: 6.00 Build 0)  -->
<!DOCTYPE svg PUBLIC "-//W3C//DTD SVG 1.1 Tiny//EN" "http://www.w3.org/Graphics/SVG/1.1/DTD/svg11-tiny.dtd">
<svg version="1.1" baseProfile="tiny" id="lelayer" xmlns="http://www.w3.org/2000/svg" xmlns:xlink="http://www.w3.org/1999/xlink"
	 x="0px" y="0px" viewBox="0 0 269.9549255 96.4037094" xml:space="preserve">

<g id="logo">
	<g>
		<path fill-rule="evenodd" fill="#002E61" d="M203.2826538,64.9996643
			c0.7447815-0.4163437,1.3530426-0.8926544,1.8262329-1.4341927c0.4748383-0.5384331,0.8403931-1.0997009,1.1035156-1.6821709
			c0.2647552-0.5824699,0.4406586-1.1641655,0.5423126-1.7458572c0.0948334-0.5824699,0.1418152-1.1376801,0.1418152-1.6647758
			c0-0.8865967-0.1418152-1.7329636-0.4322662-2.5338974c-0.2912445-0.8062172-0.7592316-1.5198593-1.3947449-2.1432571
			c-0.637146-0.626503-1.4690704-1.1225357-2.4982605-1.4986534c-1.0208588-0.3731689-2.2593536-0.5612679-3.7011566-0.5612679
			h-10.2265472c0.1432953,0.2229691,0.2502289,0.527874,0.3321686,0.9161835
			c0.0872192,0.3898697,0.1289215,0.816082,0.1289215,1.2893562v25.8228226c0,0.3313828,0.1752014,0.4975052,0.5415344,0.4975052
			h10.1841431c1.3545074,0,2.5861664-0.2138824,3.6829071-0.6431274c1.0890656-0.4293137,2.0158997-1.0041733,2.7606049-1.7262039
			c0.7508392-0.7204742,1.3257751-1.5593109,1.7261963-2.5179749c0.3996582-0.9533081,0.6022034-1.9582672,0.6022034-3.0139313
			c0-1.6351852-0.3928986-3.0974197-1.1854401-4.3852234C206.6250153,66.6848679,205.2514801,65.6936646,203.2826538,64.9996643z
			 M192.7185211,54.6479378h5.7398071c1.4402618,0,2.5641937,0.3800049,3.368927,1.1444397
			c0.7993774,0.7614822,1.2043152,1.9052162,1.2043152,3.4281044c0,1.4144707-0.4254303,2.5445366-1.272583,3.3901291
			c-0.8380585,0.8456688-1.9408569,1.2688522-3.3006592,1.2688522h-5.7398071V54.6479378z M203.1938782,75.8959656
			c-0.9404144,0.970787-2.2539978,1.4553986-3.9445496,1.4553986h-6.5308075V66.7903366h6.5308075
			c1.6640015,0,2.9707489,0.4838333,3.9256134,1.4546204c0.960144,0.9715576,1.434967,2.2434387,1.434967,3.824028
			C204.6099091,73.649498,204.1419067,74.9251862,203.1938782,75.8959656z"/>
		<path fill-rule="evenodd" fill="#002E61" d="M225.6348877,62.2989502
			c-0.6105042-0.6112823-1.4356689-1.0823059-2.4724731-1.4136925c-1.0412903-0.3352699-2.3200073-0.5006142-3.8497314-0.5006142
			c-0.6628418,0-1.2991333,0.0440369-1.9081726,0.1251945c-0.609024,0.0841827-1.1574097,0.1827393-1.64505,0.2904549
			c-0.4868622,0.1122246-0.8926544,0.2237473-1.2248077,0.3351936c-0.3306885,0.1077194-0.5824738,0.2063484-0.7508392,0.2912331
			c-0.279129,0.1387863-0.4801178,0.2768669-0.6227112,0.4126244c-0.1357574,0.1418114-0.1827393,0.3351898-0.1220856,0.5824699
			c-0.0273285,0.0302887-0.0204926,0.1046104,0.0204315,0.2298012c0.0402222,0.1251144,0.0751038,0.2305794,0.1016541,0.3116608
			l0.6227112,1.6639977c0.3041229-0.2229691,0.906311-0.4929199,1.8141174-0.8114967
			c0.9002533-0.3177948,1.9953766-0.4770813,3.3022156-0.4770813c1.6381378,0,2.8683014,0.3041267,3.7010803,0.9131584
			c0.8334808,0.6090317,1.246109,1.7057037,1.246109,3.286293v0.9980469
			c-0.6370697-0.1122284-1.3803864-0.2093048-2.2275238-0.2912369c-0.8448944-0.0841904-1.6981049-0.1251144-2.5505981-0.1251144
			c-2.4436493,0-4.344223,0.55513-5.6995087,1.6616669c-1.3598633,1.1103439-2.0363922,2.7030487-2.0363922,4.7849503
			c0,1.8535767,0.5422363,3.3530045,1.6177216,4.4906082c1.0837708,1.1361237,2.6332245,1.7018967,4.6551666,1.7018967
			c0.9222412,0,1.7201538-0.0819321,2.417099-0.2472763c0.6894073-0.1660461,1.2931519-0.3761215,1.8073578-0.6264267
			c0.5134277-0.2464981,0.9335785-0.5035629,1.2650452-0.76754c0.3390045-0.2638931,0.6029816-0.4914474,0.7917786-0.6870804
			v1.333313c0,0.3313828,0.1957092,0.4975052,0.5817719,0.4975052h2.8705597V67.2878418
			c0-1.025383-0.1289215-1.9597397-0.3935852-2.8061829C226.6823273,63.6360664,226.2424469,62.90868,225.6348877,62.2989502z
			 M223.8473358,75.6055069c-0.1631012,0.1926041-0.3928986,0.4224091-0.6849213,0.6832733
			c-0.2896729,0.2639771-0.648407,0.5210419-1.0610199,0.771347c-0.4133148,0.2503052-0.9002686,0.4565811-1.4553986,0.6227036
			c-0.55513,0.1653442-1.1770477,0.2502289-1.8672485,0.2502289c-1.1725464,0-2.1061249-0.2715149-2.8092041-0.8115005
			c-0.7106171-0.5384369-1.0625-1.4189758-1.0625-2.6392822c0-2.495224,1.5357666-3.743576,4.6149445-3.743576
			c0.6909637,0,1.4486389,0.0485382,2.2669678,0.1456223c0.819809,0.0985489,1.5039368,0.2032394,2.0583801,0.3109589V75.6055069z"
			/>
		<path fill-rule="evenodd" fill="#002E61" d="M241.350235,60.3846436c-0.8320007,0-1.59729,0.1115227-2.2873993,0.3344917
			c-0.6901855,0.2207184-1.3121185,0.4846153-1.846817,0.7879677c-0.5422516,0.3049011-1.0094604,0.6226997-1.3947449,0.9586678
			c-0.3928223,0.3314629-0.6832733,0.6219215-0.8721466,0.8729248c-0.0280457-0.1933784-0.0477753-0.4026794-0.0614319-0.6256485
			c-0.021286-0.2207184-0.0531311-0.4406586-0.1077271-0.6636276c-0.0280304-0.2783432-0.09552-0.5423164-0.2108459-0.7917709
			c-0.053833-0.1084938-0.1220856-0.1995125-0.2032471-0.2677803c-0.0879974-0.0705185-0.2358551-0.1046104-0.45961-0.1046104
			h-2.7887115c0.1699219,0.3579483,0.2912445,0.8455887,0.3792267,1.4546204
			c0.1091919,0.5552101,0.1835175,1.1376801,0.2305908,1.7459373c0.0401459,0.609726,0.0606537,1.2362289,0.0606537,1.8717422
			v13.8063965c0,0.3313828,0.1759033,0.4975052,0.5414581,0.4975052h2.9495544V66.5400314
			c0.5559082-0.7750778,1.2930756-1.4895706,2.2275085-2.1425629c0.927536-0.6499557,2.0165863-0.9776154,3.2612152-0.9776154
			c1.5236664,0,2.6059723,0.4156532,3.2422638,1.2484283c0.6362762,0.832695,0.9548492,2.0370865,0.9548492,3.6176834v11.4779892
			c0,0.3313828,0.1827393,0.4975052,0.5407715,0.4975052h2.9578552V67.497139c0-2.2463913-0.5544281-3.9930992-1.6655579-5.2406693
			C245.6891632,61.0103722,243.8750458,60.3846436,241.350235,60.3846436z"/>
		<path fill-rule="evenodd" fill="#002E61" d="M259.3097229,69.5600967l9.0282593-8.6490555h-3.83078
			c-0.3860474,0-0.7993774,0.2062721-1.2453918,0.6218452l-7.4454346,7.3203239V52.0116806
			c0-0.3587227-0.2024689-0.5415382-0.6226349-0.5415382c-0.1077118,0-0.2707977,0.0106392-0.4801025,0.0235291
			c-0.2032471,0.0136681-0.4467163,0.0333939-0.7235107,0.0606537l-2.2480164,0.2070503
			c0.2245178,0.2229691,0.3739471,0.527874,0.4611511,0.9161873c0.0811615,0.3898659,0.1213226,0.8160782,0.1213226,1.2893524
			v25.8228188c0,0.3313904,0.1828156,0.4975128,0.5415344,0.4975128h2.9502563v-9.6479492l8.7378235,9.0252457
			c0.2161255,0.2465057,0.4262085,0.4164276,0.6226807,0.4968109c0.1895752,0.0848846,0.3988953,0.1258926,0.6234131,0.1258926
			h4.1546326L259.3097229,69.5600967z"/>
		<path fill-rule="evenodd" fill="#002E61" d="M36.8923607,88.5191727H15.9424028
			c-3.4348621,0-6.1977873,1.9400101-7.5401859,3.3347549c0,0-3.2726254,3.255928-5.4864759,4.3746567
			c-0.0970783,0.0538177-0.0970783,0.1751251,0.0364239,0.1751251h20.0239067c3.9520969,0,5.8072224-1.3393631,8.1537991-3.4394379
			c0,0,3.3961868-3.2111206,5.7397346-4.2327728C37.1077957,88.64048,37.0728493,88.5191727,36.8923607,88.5191727z"/>
		<path fill-rule="evenodd" fill="#002E61" d="M174.3734436,88.5191727h-20.9545441
			c-3.4318237,0-6.1978607,1.9400101-7.5402527,3.3347549c0,0-3.2741089,3.255928-5.4849243,4.3746567
			c-0.0985565,0.0538177-0.0985565,0.1751251,0.0349426,0.1751251h20.0269318c3.9521027,0,5.8041992-1.3393631,8.1507721-3.4394379
			c0,0,3.3992157-3.2111206,5.7412872-4.2327728C174.5835266,88.64048,174.5531616,88.5191727,174.3734436,88.5191727z"/>
		<path fill-rule="evenodd" fill="#002E61" d="M71.2618713,88.5191727H50.3111725
			c-3.4318657,0-6.1971207,1.9400101-7.5402184,3.3347549c0,0-3.2741776,3.255928-5.4856987,4.3746567
			c-0.0986328,0.0538177-0.0986328,0.1751251,0.0364227,0.1751251h20.0253944c3.9521484,0,5.8049774-1.3393631,8.152317-3.4394379
			c0,0,3.3992081-3.2111206,5.7382507-4.2327728C71.474205,88.64048,71.4416656,88.5191727,71.2618713,88.5191727z"/>
		<path fill-rule="evenodd" fill="#002E61" d="M105.6306152,88.5191727H84.6806564
			c-3.4333878,0-6.1977921,1.9400101-7.5387115,3.3347549c0,0-3.2741013,3.255928-5.489502,4.3746567
			c-0.097084,0.0538177-0.097084,0.1751251,0.0394516,0.1751251H91.714325c3.9551239,0,5.8072205-1.3393631,8.153801-3.4394379
			c0,0,3.3977356-3.2111206,5.7397308-4.2327728C105.8437195,88.64048,105.8118744,88.5191727,105.6306152,88.5191727z"/>
		<path fill-rule="evenodd" fill="#002E61" d="M140.0031586,88.5191727h-20.9537659
			c-3.4333878,0-6.1970901,1.9400101-7.5417404,3.3347549c0,0-3.2726212,3.255928-5.482666,4.3746567
			c-0.0985565,0.0538177-0.0985565,0.1751251,0.0348663,0.1751251h20.0270157c3.9521027,0,5.803421-1.3393631,8.151474-3.4394379
			c0,0,3.3985138-3.2111206,5.7390289-4.2327728C140.2147827,88.64048,140.1798401,88.5191727,140.0031586,88.5191727z"/>
		<path fill-rule="evenodd" fill="#002E61" d="M122.7907104,81.336853c3.8823547,0,7.36203-0.4860916,11.4135284-1.453064
			v-7.4720001c-2.8645782,3.0283737-6.2774658,4.2062073-9.9307938,4.2062073
			c-7.0730438,0-11.9247055-4.4087524-11.9247055-10.757515c0-6.2615509,5.0230637-10.8022499,12.0422897-10.8022499
			c3.8209152,0,6.8887558,1.3606491,9.356636,3.7701302v-7.4750252c-2.5672913-0.527874-5.7632675-0.7933235-9.0146103-0.7933235
			c-13.1844711,0-21.9124298,6.3495407-21.9124298,16.0050201C102.8206253,75.4287491,110.8083801,81.336853,122.7907104,81.336853z
			"/>
		<path fill-rule="evenodd" fill="#002E61" d="M17.3242531,75.1914139c0,2.8084335-0.2495289,3.6320419-1.4409513,5.0996323
			h11.1586428c-1.2536297-1.4675903-1.4432831-2.2911987-1.4432831-5.0996323V55.7377777
			c4.8911152,0.044735,10.7415943,0.929081,13.2117329,2.8433838v-7.0791779H4.0434799v7.0791779
			c2.4702148-1.9143028,7.6403704-2.6712036,13.2807732-2.7136841V75.1914139z"/>
		<path fill-rule="evenodd" fill="#002E61" d="M43.2001953,75.1906357c0,2.8092117-0.2343864,3.6753006-1.343174,5.1004105
			H68.820549v-7.0161972c-3.6958084,2.6302032-10.7385635,2.6491547-13.5985794,2.6074448h-3.9331894v-8.0393219h2.8820152
			c1.9506645,0,5.4788551,0.2169113,7.5288696,0.8267212v-5.9832077c-2.0189171,0.6491814-5.5691032,0.833477-7.5137024,0.833477
			h-2.8971825v-7.6524849h3.9331894c3.500885,0,9.5849762,0.7364731,11.8693466,2.6514778v-7.0169716H41.7978401
			c1.1679688,1.4690628,1.4023552,2.2919769,1.4023552,5.0996361V75.1906357z"/>
		<path fill-rule="evenodd" fill="#002E61" d="M93.459404,73.5554504c0,2.5088882-3.8823547,3.5357437-7.0259781,3.5357437
			c-5.6472397,0-9.5744095-0.8493958-14.5094757-3.8064804v6.3115692c3.6798859,1.2127762,8.717392,1.8134155,14.1484222,1.8134155
			c7.5819626,0,14.670929-1.9582596,14.670929-9.3953857c0-13.1396637-21.9578629-7.242897-21.9578629-13.6804276
			c0-2.5915222,3.5191269-3.509964,6.5952682-3.509964c5.1785431,0,10.768074,1.5532532,13.8374557,4.3957825v-6.7529984
			c-3.9673157-1.2529297-9.2580795-1.9840469-13.2860489-1.9840469c-7.3059616,0-14.4305725,2.1721458-14.4305725,9.4378738
			C71.5015411,72.5050583,93.459404,65.8544235,93.459404,73.5554504z"/>
		<path fill-rule="evenodd" fill="#002E61" d="M154.0218811,81.336853c11.4111938,0,19.2966003-6.3479843,19.2966003-15.6075439
			c0-9.0852089-7.1587982-15.1692963-17.8472595-15.1692963c-11.3573914,0-19.3997345,6.5255241-19.3997345,15.7419052
			C136.0714874,75.3400574,143.2856445,81.336853,154.0218811,81.336853z M154.6953735,54.9171944
			c5.9536133,0,9.8959198,4.9229584,9.8959198,10.9964104s-3.9423065,10.9956284-9.8959198,10.9956284
			c-6.0439453,0-9.8967133-4.9221802-9.8967133-10.9956284S148.6514282,54.9171944,154.6953735,54.9171944z"/>
	</g>
	<g>
		<path fill-rule="evenodd" fill="#A0A2A5" d="M52.856945,0h-32.525692c-5.3327694,0-9.6223269,3.0119507-11.7064571,5.1773481
			c0,0-5.0808887,5.054965-8.5179853,6.7918406c-0.1507181,0.0835581-0.1507181,0.2718954,0.0565494,0.2718954h31.0879612
			c6.1357937,0,9.0159588-2.0794277,12.6591167-5.3398829c0,0,5.2727203-4.985393,8.9111786-6.5715504
			C53.1914177,0.1883374,53.1371613,0,52.856945,0z"/>
		<path fill-rule="evenodd" fill="#C4445B" d="M266.302124,0h-32.5328064c-5.328064,0-9.6224518,3.0119507-11.7065735,5.1773481
			c0,0-5.0831909,5.054965-8.5155792,6.7918406c-0.1530151,0.0835581-0.1530151,0.2718954,0.0542603,0.2718954h31.0926666
			c6.135788,0,9.0112457-2.0794277,12.6544189-5.3398829c0,0,5.2774048-4.985393,8.9135742-6.5715504
			C266.6282654,0.1883374,266.5811157,0,266.302124,0z"/>
		<path fill-rule="evenodd" fill="#6EB0B5" d="M106.2170639,0H73.6902161c-5.3281174,0-9.6212921,3.0119507-11.7065048,5.1773481
			c0,0-5.0833015,5.054965-8.5167809,6.7918406c-0.1531296,0.0835581-0.1531296,0.2718954,0.0565491,0.2718954h31.0902672
			c6.1358795,0,9.0124741-2.0794277,12.6568146-5.3398829c0,0,5.27742-4.985393,8.9088821-6.5715504
			C106.5467148,0.1883374,106.4961929,0,106.2170639,0z"/>
		<path fill-rule="evenodd" fill="#DEA35F" d="M159.5759735,0h-32.5256882c-5.3304749,0-9.6223221,3.0119507-11.7041626,5.1773481
			c0,0-5.0831833,5.054965-8.5226898,6.7918406c-0.1507187,0.0835581-0.1507187,0.2718954,0.0612488,0.2718954h31.0856705
			c6.1405029,0,9.0159607-2.0794277,12.6591187-5.3398829c0,0,5.2751312-4.985393,8.9111786-6.5715504
			C159.9068298,0.1883374,159.8574066,0,159.5759735,0z"/>
		<path fill-rule="evenodd" fill="#767AAD" d="M212.9407959,0h-32.531601c-5.3304749,0-9.6212311,3.0119507-11.7088623,5.1773481
			c0,0-5.0808868,5.054965-8.5120697,6.7918406c-0.1530151,0.0835581-0.1530151,0.2718954,0.0541229,0.2718954h31.0927887
			c6.1358032,0,9.0100555-2.0794277,12.6555023-5.3398829c0,0,5.2763367-4.985393,8.9100952-6.5715504
			C213.2693634,0.1883374,213.2151031,0,212.9407959,0z"/>
	</g>
</g>
</svg>
