<?xml version="1.0" encoding="utf-8"?>
<!-- Generator: Adobe Illustrator 17.1.0, SVG Export Plug-In . SVG Version: 6.00 Build 0)  -->
<!DOCTYPE svg PUBLIC "-//W3C//DTD SVG 1.1//EN" "http://www.w3.org/Graphics/SVG/1.1/DTD/svg11.dtd">
<svg version="1.1" id="Layer_1" xmlns="http://www.w3.org/2000/svg" xmlns:xlink="http://www.w3.org/1999/xlink" x="0px" y="0px"
	 viewBox="0 0 80 80" enable-background="new 0 0 80 80" xml:space="preserve">
<g>
	<g>
		<path fill="#1B3160" d="M77.57,38.31c-2.82,4.65-9.69,7.53-13.94,4.96c-4.25-2.58-4.27-9.65-1.45-14.3
			c2.82-4.65,9.31-8.08,13.56-5.5C80,26.04,80.4,33.66,77.57,38.31z"/>
		<path fill="#1B3160" d="M57.54,22.21c-2.38,4.89-8.94,8.41-13.42,6.24c-4.47-2.17-5.15-9.21-2.78-14.1
			c2.38-4.89,8.52-8.92,12.99-6.75S59.92,17.32,57.54,22.21z"/>
		<path fill="#1B3160" d="M34.14,17.97c2.34,4.91,1,12.24-3.49,14.38c-4.49,2.14-10.41-1.71-12.76-6.62
			c-2.34-4.91-1.66-12.22,2.82-14.36C25.21,9.23,31.8,13.06,34.14,17.97z"/>
		<path fill="#1B3160" d="M16.83,31.79c3.33,3.97,3.82,11.05,0.19,14.1c-3.63,3.04-10.01,0.89-13.34-3.08
			c-3.33-3.97-4.43-10.88-0.8-13.92C6.51,25.84,13.5,27.82,16.83,31.79z"/>
	</g>
	<path fill="#1B3160" d="M38.32,35.36c-11.71,0-21.2,12.59-21.2,28.13c0,15.53,9.78,7.36,21.49,7.36c11.71,0,20.92,8.18,20.92-7.36
		C59.52,47.96,50.03,35.36,38.32,35.36z"/>
</g>
</svg>
